<?xml version="1.0" standalone="no"?><!-- Generator: Gravit.io --><svg xmlns="http://www.w3.org/2000/svg" xmlns:xlink="http://www.w3.org/1999/xlink" style="isolation:isolate" viewBox="0 0 300 300" width="300" height="300"><path d=" M 0 150.00000000000003 C 0 67.212747 67.21274699999995 2.842170943040401e-14 149.99999999999997 0 C 232.787253 0 300 67.21274699999995 300 149.99999999999997 C 300 232.78725299999996 232.78725300000002 300 150.00000000000006 300 C 67.21274700000002 300 2.842170943040401e-14 232.78725300000002 0 150.00000000000003 Z " fill="rgb(0,120,215)"/><clipPath id="_clipPath_sVR4qjivAnQdaF7boIJQ2ysHE1fbxESo"><path d=" M 0 150.00000000000003 C 0 67.212747 67.21274699999995 2.842170943040401e-14 149.99999999999997 0 C 232.787253 0 300 67.21274699999995 300 149.99999999999997 C 300 232.78725299999996 232.78725300000002 300 150.00000000000006 300 C 67.21274700000002 300 2.842170943040401e-14 232.78725300000002 0 150.00000000000003 Z " fill="rgb(0,120,215)"/></clipPath><g clip-path="url(#_clipPath_sVR4qjivAnQdaF7boIJQ2ysHE1fbxESo)"><path d=" M 222.30799873561546 67.07210276997608 L 329 167 L 201.3105207134643 333 L 62.830367641354 204.4719482732413 L 222.30799873561546 67.07210276997608 Z " fill="rgb(0,69,120)"/></g><g style="isolation:isolate"/><path d=" M 139.8536322033728 249.61626489709087 C 146.40458839307905 245.44845198183276 152.05613450156102 239.66563682134336 156.18415762239124 232.46799537718965 C 169.91328810383106 208.52981585325048 161.62483362407804 177.94873720234597 137.68665575468543 164.21960766982895 C 113.74847457619974 150.49047623946626 83.1673985287646 158.77893001359564 69.43826804732475 182.71710953753478 C 65.31024492649453 189.91475098168848 63.17274553907933 197.71295774299512 62.88338432555541 205.47194827324125 L 139.8536322033728 249.61626489709087 Z " fill="rgb(0,32,80)"/><path d=" M 112.06494954726317 208.8937408009882 L 68.69200475972994 184.01829788116078 L 124.91050575853993 85.99544266133563 L 168.28345054607314 110.87088558116307 L 112.06494954726317 208.8937408009882 Z " fill="rgb(0,32,80)"/><path d=" M 112.06494954726317 208.8937408009882 L 155.43789433479645 233.76918372081565 L 211.65639533360644 135.7463285009905 L 168.28345054607314 110.87088558116307 L 112.06494954726317 208.8937408009882 Z " fill="rgb(0,32,80)"/><path d=" M 123.91548804174681 87.73036045283698 C 132.15296638771005 73.3674526389148 158.27551889130618 72.85290592353904 182.21369858117652 86.58203650014445 C 206.15187827104683 100.31116707674988 218.89885596277657 123.11833847856964 210.6613776168133 137.48124629249185 C 202.4238992708501 151.844154106414 176.30134676725393 152.35870082178977 152.36316707738362 138.62957024518437 C 128.42498738751328 124.90043966857895 115.67800969578356 102.09326826675917 123.91548804174681 87.73036045283698 Z " fill="rgb(0,32,80)"/><path d=" M 101.86601795013392 226.67664816387685 L 62.830367641354016 204.28874953603213 L 92.18339028675038 153.10867468674292 L 131.2190405955303 175.49657331458758 L 101.86601795013392 226.67664816387685 Z " fill="rgb(0,32,80)"/><path d=" M 101.86601795013392 226.67664816387685 L 140.90166825891384 249.0645467917215 L 170.25469090431022 197.8844719424323 L 131.2190405955303 175.49657331458758 L 101.86601795013392 226.67664816387685 Z " fill="rgb(0,32,80)"/><path d=" M 99.37847365815118 231.01394264263018 C 77.83411193726792 218.65772512368528 61.457454583693476 206.68256750501922 62.830367641354016 204.28874953603213 C 64.20328069901456 201.8949315670451 82.80920052123338 209.9831361661786 104.35356224211665 222.3393536851235 L 99.37847365815118 231.01394264263018 Z " fill="rgb(0,32,80)"/><path d=" M 99.37847365815118 231.01394264263018 C 120.92283537903448 243.37016016157503 139.52875520125332 251.45836476070855 140.90166825891384 249.0645467917215 C 142.2745813165744 246.67072882273447 125.89792396299995 234.69557120406836 104.35356224211665 222.3393536851235 L 99.37847365815118 231.01394264263018 Z " fill="rgb(0,32,80)"/><path d=" M 185.69626058995237 80.5098242298898 L 164.00978819618575 68.07210276997608 L 178.9350539480822 42.04833589745614 L 200.62152634184883 54.486057357369845 L 185.69626058995237 80.5098242298898 Z " fill="rgb(92,45,145)"/><path d=" M 185.69626058995237 80.5098242298898 L 207.382732983719 92.94754568980352 L 222.30799873561546 66.92377881728356 L 200.62152634184883 54.486057357369845 L 185.69626058995237 80.5098242298898 Z " fill="rgb(50,20,90)"/><path d=" M 179.22864543079723 91.78678987464843 L 163.61438530728526 82.83163042351055 L 170.0820004664404 71.55466477875191 L 185.69626058995237 80.5098242298898 L 179.22864543079723 91.78678987464843 Z " fill="rgb(0,32,80)" vector-effect="non-scaling-stroke" stroke-width="1" stroke="rgb(0,32,80)" stroke-linejoin="miter" stroke-linecap="square" stroke-miterlimit="3"/><path d=" M 179.22864543079723 91.78678987464843 L 194.8429055543092 100.74194932578632 L 201.3105207134643 89.46498368102766 L 185.69626058995237 80.5098242298898 L 179.22864543079723 91.78678987464843 Z " fill="rgb(0,32,80)" vector-effect="non-scaling-stroke" stroke-width="1" stroke="rgb(0,32,80)" stroke-linejoin="miter" stroke-linecap="square" stroke-miterlimit="3"/><path d=" M 117.16441534582779 200.0022871195439 L 73.79147055829456 175.12684419971646 L 118.94039945778135 96.40494941034362 L 162.31334424531457 121.28039233017103 L 117.16441534582779 200.0022871195439 Z " fill="rgb(180,160,255)"/><path d=" M 117.16441534582779 200.0022871195439 L 160.53736013336106 224.87773003937133 L 205.68628903284787 146.15583524999846 L 162.31334424531457 121.28039233017103 L 117.16441534582779 200.0022871195439 Z " fill="rgb(92,45,145)"/></svg>